<?xml version="1.0" encoding="utf-8"?>
<svg xmlns="http://www.w3.org/2000/svg" xmlns:svg="http://www.w3.org/2000/svg" version="1.1" viewBox="0 0 1400 340">
	<title>The titlepage for the Standard Ebooks edition of The Desert Healer, by E. M. Hull</title>
	<g aria-label="THE DESERT HEALER">
		<path d="m 177.92689,68.245613 h 18.33918 V 130 h 17.59065 V 68.245613 H 232.1959 V 52.807016 h -54.26901 z"/>
		<path d="m 261.12134,99.029239 h 24.88889 V 130 h 17.59064 V 52.807016 H 286.01023 V 83.590642 H 261.12134 V 52.807016 H 243.53069 V 130 h 17.59065 z"/>
		<path d="M 363.96637,52.807016 H 319.80263 V 130 h 44.16374 v -15.4386 h -26.5731 V 99.029239 h 25.45029 V 83.590642 H 337.39327 V 68.245613 h 26.5731 z"/>
		<path d="M 409.66374,52.807016 V 130 h 22.36258 c 21.23976,0 38.92397,-16.09357 38.92397,-38.643276 0,-22.45614 -17.77777,-38.549708 -38.92397,-38.549708 z M 427.25439,114.2807 V 68.526315 h 2.71345 c 13.09941,0 21.9883,10.011696 21.9883,22.923977 -0.0936,12.912278 -8.98246,22.830408 -21.9883,22.830408 z"/>
		<path d="M 527.90642,52.807016 H 483.74268 V 130 h 44.16374 v -15.4386 h -26.5731 V 99.029239 h 25.45029 V 83.590642 H 501.33332 V 68.245613 h 26.5731 z"/>
		<path d="m 571.46346,51.403507 c -12.44445,0 -25.16959,9.169591 -25.16959,23.578948 0,8.046784 5.4269,15.251462 14.69006,19.836258 9.16959,4.584795 17.4035,7.111107 17.4035,12.725147 0,7.20468 -7.29824,7.57895 -11.1345,7.57895 -8.60819,0 -18.90058,-8.70176 -18.90058,-8.70176 l -8.79533,14.78363 c 0,0 10.94737,10.19883 29.00585,10.19883 15.06433,0 29.09942,-6.45614 29.09942,-24.88889 0,-10.105264 -9.45029,-17.40351 -18.05848,-21.052632 -8.79532,-3.742691 -16.09357,-6.83041 -16.09357,-11.134504 0,-4.210526 3.18129,-6.923976 9.16959,-6.923976 7.95322,0 15.62573,5.333333 15.62573,5.333333 l 7.11111,-14.035088 c 0,0 -9.91812,-7.298246 -23.95321,-7.298246 z"/>
		<path d="M 655.04823,52.807016 H 610.88449 V 130 h 44.16374 v -15.4386 h -26.5731 V 99.029239 h 25.4503 V 83.590642 h -25.4503 V 68.245613 h 26.5731 z"/>
		<path d="M 670.16083,52.807016 V 130 h 17.59064 V 99.497075 L 711.33042,130 h 22.36257 l -26.5731,-31.906433 c 9.4503,-2.994152 15.81287,-10.760234 15.81287,-22.362574 0,-15.157895 -10.8538,-22.923977 -25.16959,-22.923977 z m 17.59064,34.245615 V 66.842104 h 2.05848 c 6.64328,0 14.59649,0.467836 14.59649,10.105263 0,9.637428 -7.95321,10.105264 -14.59649,10.105264 z"/>
		<path d="m 733.70906,68.245613 h 18.33918 V 130 h 17.59064 V 68.245613 h 18.33918 V 52.807016 h -54.269 z"/>
		<path d="m 847.48832,99.029239 h 24.88889 V 130 h 17.59064 V 52.807016 H 872.37721 V 83.590642 H 847.48832 V 52.807016 H 829.89767 V 130 h 17.59065 z"/>
		<path d="M 950.33333,52.807016 H 906.16959 V 130 h 44.16374 v -15.4386 h -26.5731 V 99.029239 h 25.45029 V 83.590642 H 923.76023 V 68.245613 h 26.5731 z"/>
		<path d="M 1005.1989,52.807016 H 988.91815 L 957.76025,130 h 18.90059 l 5.7076,-15.4386 h 29.38016 L 1017.4562,130 h 18.9005 z m 0.5614,46.31579 h -17.40356 l 8.60819,-22.45614 h 0.18714 z"/>
		<path d="m 1061.867,52.807016 h -17.5907 V 130 h 44.1638 v -15.4386 h -26.5731 z"/>
		<path d="m 1146.2544,52.807016 h -44.1637 V 130 h 44.1637 v -15.4386 h -26.5731 V 99.029239 h 25.4503 V 83.590642 h -25.4503 V 68.245613 h 26.5731 z"/>
		<path d="M 1161.367,52.807016 V 130 h 17.5906 V 99.497075 L 1202.5366,130 h 22.3625 L 1198.326,98.093567 c 9.4503,-2.994152 15.8129,-10.760234 15.8129,-22.362574 0,-15.157895 -10.8538,-22.923977 -25.1696,-22.923977 z m 17.5906,34.245615 V 66.842104 h 2.0585 c 6.6433,0 14.5965,0.467836 14.5965,10.105263 0,9.637428 -7.9532,10.105264 -14.5965,10.105264 z"/>
	</g>
	<g aria-label="E. M. HULL">
		<path d="m 525.14035,232.10526 h -33.1228 V 290 h 33.1228 v -11.57895 h -19.92982 v -11.64912 h 19.08772 v -11.57895 h -19.08772 v -11.50877 h 19.92982 z"/>
		<path d="m 545.72478,274.98246 c -4.42105,0 -8,3.57894 -8,8.07017 0,4.42105 3.57895,8 8,8 4.49123,0 8.07018,-3.57895 8.07018,-8 0,-4.49123 -3.57895,-8.07017 -8.07018,-8.07017 z"/>
		<path d="M 639.30702,290 H 652.5 l -5.19298,-57.89474 h -14.03509 l -12.8421,33.40351 -12.84211,-33.40351 H 593.55263 L 588.35965,290 h 13.19298 l 2.73685,-34.31579 h 0.35087 L 616.5,289.64912 h 7.85965 l 11.85965,-33.96491 h 0.35088 z"/>
		<path d="m 670.78509,274.98246 c -4.42105,0 -8,3.57894 -8,8.07017 0,4.42105 3.57895,8 8,8 4.49123,0 8.07018,-3.57895 8.07018,-8 0,-4.49123 -3.57895,-8.07017 -8.07018,-8.07017 z"/>
		<path d="m 729.70066,266.77193 h 18.66666 V 290 h 13.19298 v -57.89474 h -13.19298 v 23.08772 H 729.70066 V 232.10526 H 716.50767 V 290 h 13.19299 z"/>
		<path d="m 819.45283,232.10526 h -13.19298 v 33.47369 c 0,9.68421 -2.94737,12.49123 -9.40351,12.49123 -6.45614,0 -9.40351,-2.80702 -9.40351,-12.49123 v -33.47369 h -13.19298 v 37.33334 c 0,14.31579 7.85965,21.61403 22.59649,21.61403 14.73685,0 22.59649,-7.29824 22.59649,-21.61403 z"/>
		<path d="M 845.37499,232.10526 H 832.182 V 290 h 33.12281 v -11.57895 h -19.92982 z"/>
		<path d="M 889.98574,232.10526 H 876.79275 V 290 h 33.12281 v -11.57895 h -19.92982 z"/>
	</g>
</svg>
